<svg width="42" height="14" viewBox="0 0 42 14" fill="none" xmlns="http://www.w3.org/2000/svg">
<path fill-rule="evenodd" clip-rule="evenodd" d="M27.8116 7C27.8116 10.8658 24.6538 14 20.7585 14C16.8632 14 13.7063 10.8658 13.7063 7C13.7063 3.13418 16.8636 0 20.7589 0C24.6543 0 27.8111 3.13418 27.8111 7H27.8116ZM7.24337 0.666565C7.27286 0.615861 7.31528 0.573754 7.36636 0.544479C7.41744 0.515203 7.47539 0.499791 7.53438 0.499791C7.59336 0.499791 7.65131 0.515203 7.70239 0.544479C7.75347 0.573754 7.79589 0.615861 7.82538 0.666565L15.0237 13.0421C15.0532 13.0928 15.0688 13.1503 15.0688 13.2088C15.0687 13.2673 15.0532 13.3249 15.0237 13.3756C14.9942 13.4263 14.9518 13.4684 14.9007 13.4976C14.8497 13.5269 14.7917 13.5423 14.7327 13.5423H0.336019C0.277037 13.5423 0.219093 13.5269 0.168012 13.4976C0.116931 13.4684 0.074512 13.4263 0.0450198 13.3756C0.0155275 13.3249 6.78638e-07 13.2673 0 13.2088C-6.78594e-07 13.1503 0.0155248 13.0928 0.0450159 13.0421L7.24337 0.666565ZM29.4059 0.416869C29.0352 0.416869 28.7343 0.715484 28.7343 1.08386V12.917C28.7343 13.2854 29.0352 13.5836 29.4059 13.5836H41.3284C41.6991 13.5836 42 13.2854 42 12.917V1.08343C42 0.715058 41.6991 0.416444 41.3284 0.416444L29.4059 0.416869Z" fill="black"/>
</svg>
