<svg width="20" height="18" viewBox="0 0 20 18" fill="none" xmlns="http://www.w3.org/2000/svg">
<path d="M5.93425 3.864C6.55292 3.864 7.09958 3.91467 7.57425 4.016C8.04892 4.112 8.47292 4.24 8.84625 4.4L8.15025 6.048C7.85692 5.936 7.55558 5.856 7.24625 5.808C6.93692 5.75467 6.63025 5.728 6.32625 5.728C5.82492 5.728 5.46492 5.81867 5.24625 6C5.03292 6.18133 4.92625 6.48267 4.92625 6.904V8.04H7.69425L7.41425 9.792H4.92625V16H2.41425V9.792H0.63025V8.04H2.41425V6.808C2.41425 6.248 2.54758 5.74667 2.81425 5.304C3.08092 4.86133 3.47558 4.512 3.99825 4.256C4.52092 3.99467 5.16625 3.864 5.93425 3.864ZM12.088 16H9.352L12.264 11.536L9.624 7.504H12.456L13.816 10.224L15.128 7.504H17.816L15.32 11.44L18.248 16H15.384L13.704 12.824L12.088 16Z" fill="black"/>
</svg>
