<svg width="42" height="32" xmlns="http://www.w3.org/2000/svg"><path d="M41.696 19.028l-.281.261c-.178.18-.44.433-.791.755a32.877 32.877 0 0 1-2.98 2.548l-.5.36c-.169.12-.356.224-.533.343-.365.235-.743.45-1.131.645-.799.412-1.645.722-2.52.923-1.778.397-3.716.266-6.027-.401-.288-.08-.584-.18-.877-.272l-.944-.325a9.44 9.44 0 0 1-1.232-.639 39.182 39.182 0 0 1-3.36-2.373l-1.928-1.47-.054-.04c.115-.174.22-.354.317-.54.43-.983.772-1.965 1.116-2.92.128-.359.383-.837.553-1.227l.107.037c.798.274 1.617.481 2.449.619a14.35 14.35 0 0 0 2.68.212 13.79 13.79 0 0 0 2.844-.32c.48-.115.96-.24 1.438-.406.24-.072.479-.18.712-.268l.178-.074.088-.036.098-.041.034-.016.299-.14c.144-.07.306-.148.432-.218s.256-.139.386-.22c.264-.157.52-.329.766-.514a7.683 7.683 0 0 0 1.433-1.382 7.181 7.181 0 0 0 1.083-1.863 6.866 6.866 0 0 0 .457-3.098 7.445 7.445 0 0 0-.95-3.114A7.598 7.598 0 0 0 32.224.938a6.985 6.985 0 0 0-4.006-.92c-.339.027-.676.078-1.008.152l-.062.012a.497.497 0 0 0-.11.026l-.082.025-.164.048-.178.054-.24.078a8.71 8.71 0 0 0-.878.34l-.414.2c-.135.07-.269.146-.402.22A9.89 9.89 0 0 0 21.99 3.5c-.354.435-.678.894-.971 1.373-.285.457-.546.928-.783 1.412-.158.323-.355.776-.517 1.138l-.04-.018a22.677 22.677 0 0 1-2.488-1.345 24.443 24.443 0 0 1-2.084-1.438 37.596 37.596 0 0 1-2.94-2.518c-.177-.161-.328-.3-.465-.436-.137-.137-.25-.25-.345-.34-.096-.09-.178-.159-.22-.203l-.077-.069-.308.126v.103c0 .068-.012.169-.016.3-.022.39-.013.781.025 1.17 0 .132.027.27.041.416l.066.45.087.492c.037.169.076.347.124.528.212.848.51 1.672.89 2.458.467.992 1.049 1.924 1.733 2.778a14.566 14.566 0 0 0 2.86 2.724c.31.223.634.438.974.647l.08.047c-.198.43-.491.942-.667 1.32-.2.43-.416.85-.642 1.258a17.37 17.37 0 0 1-.711 1.187c0 .009-.032.037-.064.073a35.094 35.094 0 0 0-1.825-1.192 18.683 18.683 0 0 0-2.981-1.488l-.461-.164-.231-.08-.167-.046-.335-.095-.04-.013a.971.971 0 0 0-.14-.038l-.125-.028-.255-.054A7.499 7.499 0 0 0 2.92 15.38c-1.13.875-2 2.05-2.512 3.394a6.535 6.535 0 0 0-.396 1.902c0 .135-.013.27-.01.408.004.434.058.866.161 1.287a5.179 5.179 0 0 0 2.311 3.16 6.52 6.52 0 0 0 2.063.828c1.205.245 2.441.287 3.66.123a18.104 18.104 0 0 0 1.642-.283c.265-.056.551-.127.818-.192l.356-.097.178-.049.13-.036.108-.032c.912-.263 1.806-.824 2.628-1.34l.098.12c.462.555.931 1.121 1.422 1.682a24.304 24.304 0 0 0 1.956 1.978 15.458 15.458 0 0 0 2.4 1.783c.943.57 1.961 1.002 3.023 1.286l.562.138.685.153c.435.086.864.16 1.3.221 1.719.256 3.467.246 5.184-.029.823-.138 1.632-.35 2.418-.63a13.684 13.684 0 0 0 2.134-1.006 12.858 12.858 0 0 0 3.156-2.635c.38-.444.737-.908 1.067-1.39.15-.23.297-.453.425-.678l.37-.653a16.589 16.589 0 0 0 1.49-4.112c.112-.483.163-.863.202-1.114l.052-.385-.304-.155zM24.77 6.358A4.996 4.996 0 0 1 26.453 5.3l.22-.077.222-.062a3.5 3.5 0 0 1 .42-.084l.243-.035.176-.023.084-.011c-.018 0 .096-.018-.026 0h.023c.112-.008.224-.008.336 0 .4.043.779.208 1.084.475.302.27.53.615.66 1.001.047.137.078.28.093.424.023.173.013.349-.03.518-.065.213-.19.402-.362.543a2.401 2.401 0 0 1-.368.262c-.08.049-.164.093-.249.133-.042.023-.095.041-.14.064-.046.023-.07.025-.104.041l-.245.095-.034.012c-.024.01.088-.037.028-.014l-.049.014-.098.029c-.133.033-.258.083-.393.112a7.904 7.904 0 0 1-.796.167A10.53 10.53 0 0 1 25.531 9c-.536 0-1.071-.041-1.601-.123a5.42 5.42 0 0 1-.393-.064c-.13-.025-.26-.045-.39-.073L23 8.704c.095-.178.205-.386.282-.504a9.252 9.252 0 0 1 1.49-1.84v-.002zM10.268 21.574l-.065.019h-.046l-.17.039-.34.078c-.205.037-.387.078-.595.111-.41.072-.813.117-1.205.148-.692.07-1.39.02-2.067-.15a1.736 1.736 0 0 1-.595-.285.507.507 0 0 1-.123-.127.205.205 0 0 1-.043-.089.734.734 0 0 1-.013-.26c.006-.067.017-.134.032-.2.027-.116.064-.23.11-.339.202-.464.519-.857.915-1.135a2.018 2.018 0 0 1 1.23-.383c.211.009.422.05.624.12l.08.032.04.015-.05-.017.039.015.313.118.157.06.088.046.17.085c.621.318 1.204.718 1.735 1.19.17.153.34.316.511.485-.235.139-.48.36-.732.424z" fill="#FFF"/></svg>