<svg width="25" height="19" viewBox="0 0 25 19" fill="none" xmlns="http://www.w3.org/2000/svg">
<path fill-rule="evenodd" clip-rule="evenodd" d="M24.402 11.1573L24.2376 11.3102C24.1336 11.4156 23.9795 11.5643 23.7745 11.753C23.223 12.2855 22.6406 12.7844 22.0305 13.2468L21.7381 13.4576C21.681 13.4984 21.6204 13.5361 21.5594 13.574C21.5148 13.6017 21.4699 13.6296 21.4259 13.659C21.2122 13.7972 20.9913 13.9235 20.7641 14.0375C20.2967 14.2791 19.8014 14.4608 19.2896 14.5783C18.249 14.8113 17.1147 14.7343 15.762 14.3432C15.6446 14.3109 15.5252 14.2725 15.4056 14.234C15.3534 14.2172 15.3011 14.2003 15.249 14.184L14.6964 13.9932C14.4473 13.8864 14.2063 13.7613 13.9753 13.6189C13.2965 13.1901 12.6404 12.7256 12.0096 12.2274L10.8806 11.365L10.8493 11.3418C10.9165 11.2397 10.9783 11.1342 11.0346 11.0255C11.2535 10.5242 11.4331 10.0236 11.609 9.53348L11.6881 9.31349C11.735 9.18142 11.8109 9.02207 11.8856 8.8652L11.8856 8.86519L11.8856 8.86515C11.9302 8.77159 11.9744 8.67892 12.0117 8.59345L12.0741 8.61559C12.5411 8.77604 13.0204 8.89734 13.507 8.97824C14.0248 9.06878 14.5498 9.11043 15.0752 9.10264C15.6351 9.09815 16.193 9.03527 16.7401 8.91499C17.0211 8.84752 17.3021 8.77373 17.582 8.67674C17.6768 8.64826 17.7712 8.61016 17.8645 8.57252L17.8645 8.57251L17.8646 8.57248C17.9094 8.55439 17.954 8.53642 17.9982 8.51966L18.1023 8.47643L18.1543 8.45535L18.2115 8.4311L18.2313 8.42161L18.4061 8.33939L18.4382 8.32376L18.4383 8.32374C18.5138 8.28697 18.5944 8.24778 18.659 8.21182L18.7101 8.1836C18.7677 8.15194 18.8263 8.11977 18.8848 8.08321C19.0394 7.99078 19.1891 7.89013 19.3333 7.7817C19.6464 7.54946 19.9283 7.27694 20.172 6.971C20.4365 6.6415 20.6502 6.27326 20.8057 5.87883C20.9647 5.47513 21.0575 5.0478 21.0805 4.61376C21.0901 4.43002 21.0877 4.24582 21.0732 4.0624C21.0244 3.41945 20.8346 2.79563 20.5175 2.23649C20.1249 1.53294 19.5518 0.950097 18.8588 0.549735C18.1474 0.138324 17.3313 -0.0492116 16.5143 0.0110273C16.3158 0.0264923 16.1187 0.0560836 15.9243 0.099582L15.8879 0.106962C15.8659 0.109402 15.8443 0.114353 15.8234 0.121721L15.7755 0.13648L15.6798 0.164944L15.5757 0.19657L15.4352 0.241902C15.2605 0.298955 15.0889 0.365467 14.9212 0.44115L14.6787 0.559223C14.617 0.591286 14.556 0.625273 14.4951 0.659183L14.495 0.659213L14.4435 0.687838C13.8418 1.04261 13.3084 1.50478 12.8691 2.052C12.6623 2.30742 12.4725 2.57649 12.301 2.85743C12.1343 3.12508 11.9815 3.4013 11.8431 3.68499C11.7709 3.83296 11.6847 4.02709 11.6054 4.20588L11.6054 4.20592L11.5403 4.35232L11.5174 4.34177C11.0161 4.10971 10.5296 3.84635 10.0606 3.55322C9.63998 3.29354 9.23292 3.01204 8.84099 2.70984C8.24303 2.24805 7.66891 1.75543 7.12088 1.23393C7.01683 1.13905 6.92838 1.05787 6.84825 0.977749L6.80845 0.937902L6.80844 0.937896C6.746 0.875341 6.69297 0.82221 6.64637 0.778501C6.62223 0.755855 6.59963 0.735545 6.57971 0.717652C6.55328 0.693898 6.53159 0.674407 6.51734 0.659374L6.47259 0.619314L6.29257 0.693109V0.7532C6.29257 0.772361 6.29091 0.795863 6.28894 0.82359L6.28894 0.823613C6.28679 0.853852 6.28429 0.889116 6.28321 0.929255C6.27045 1.15806 6.27532 1.38752 6.29778 1.61555C6.29778 1.6662 6.30454 1.71867 6.31153 1.77297V1.77297C6.31517 1.80118 6.31886 1.82988 6.32171 1.85908L6.36021 2.12264L6.4112 2.41149L6.41284 2.41895C6.4342 2.51582 6.45665 2.61762 6.48404 2.72143C6.60796 3.2187 6.78232 3.70164 7.00434 4.16256C7.27779 4.7442 7.61836 5.29094 8.01892 5.79133C8.50289 6.39822 9.06617 6.93554 9.69323 7.38848C9.8743 7.5192 10.064 7.64571 10.2624 7.768L10.3093 7.79541C10.248 7.92898 10.171 8.07619 10.0968 8.21802L10.0968 8.21806L10.0968 8.21807C10.031 8.34375 9.96744 8.4652 9.91904 8.56921C9.8025 8.82222 9.67554 9.06785 9.54339 9.30716C9.41123 9.54647 9.27491 9.77945 9.12715 10.0029C9.12715 10.0064 9.11909 10.0149 9.10826 10.0262C9.10258 10.0322 9.09613 10.0389 9.08969 10.0462C8.75045 9.81003 8.39665 9.57493 8.02204 9.34722C7.46699 9.00452 6.88301 8.7124 6.27696 8.47433L6.00745 8.37839L5.87217 8.33201L5.77436 8.3046L5.57872 8.24872L5.55479 8.24134C5.52831 8.23196 5.50118 8.22456 5.47362 8.2192L5.39974 8.20234L5.25094 8.17071C4.84171 8.09115 4.42357 8.0695 4.00847 8.1064C3.1719 8.18262 2.37413 8.49896 1.70876 9.0183C1.04693 9.53179 0.538081 10.2206 0.238398 11.0087C0.106063 11.3665 0.0278298 11.7425 0.00634531 12.124C0.00634531 12.1607 0.00477715 12.1974 0.00319998 12.2343C0.00137799 12.2769 -0.000456025 12.3198 0.000101747 12.3634C0.00291395 12.6178 0.0346886 12.8711 0.0947958 13.1182C0.288275 13.8915 0.774154 14.5568 1.44757 14.9704C1.81977 15.2007 2.22797 15.3651 2.65466 15.4564C3.35967 15.6002 4.08335 15.6244 4.7962 15.5281C5.12503 15.486 5.44657 15.4322 5.75771 15.3626C5.88479 15.3358 6.02025 15.3027 6.15093 15.2707L6.23638 15.2498L6.4445 15.1929L6.54856 15.1644L6.62452 15.1433L6.688 15.1244C7.22182 14.9704 7.74524 14.6415 8.226 14.339L8.28323 14.4085L8.33787 14.4744C8.59079 14.779 8.84781 15.0885 9.1157 15.3953C9.47509 15.8037 9.85727 16.1908 10.2604 16.5549C10.6943 16.9486 11.1647 17.2988 11.6652 17.6007C12.2171 17.9346 12.8126 18.1884 13.4342 18.3545L13.763 18.4357L14.1636 18.5253C14.4186 18.5759 14.6694 18.6191 14.9243 18.655C15.9308 18.8049 16.9539 18.7992 17.9587 18.6381C18.4401 18.5567 18.9137 18.4329 19.3739 18.2681C19.806 18.1081 20.2237 17.911 20.6226 17.6787C21.316 17.2671 21.9396 16.7453 22.4696 16.1333C22.6922 15.8733 22.9007 15.6013 23.094 15.3183L23.1261 15.2688C23.2025 15.1513 23.277 15.0365 23.3427 14.9209L23.5591 14.5382C23.9544 13.7774 24.2477 12.9666 24.4312 12.1272C24.4879 11.8817 24.5182 11.682 24.5401 11.537L24.5498 11.4736L24.58 11.248L24.402 11.1573ZM14.4971 3.72774C14.7814 3.45649 15.1161 3.24566 15.4815 3.10759L15.6098 3.0627L15.7402 3.02616C15.8209 3.00481 15.9028 2.98842 15.9855 2.97709L16.1282 2.95621L16.2308 2.94264L16.2801 2.93638L16.2791 2.9363C16.3444 2.93149 16.4099 2.93152 16.4751 2.93638C16.7096 2.96139 16.9309 3.05865 17.1095 3.21513C17.2862 3.37311 17.4193 3.57539 17.4954 3.80186C17.5229 3.88228 17.5412 3.96566 17.5498 4.05034C17.5636 4.15179 17.5577 4.25502 17.5324 4.35415C17.4946 4.4793 17.4209 4.59016 17.3209 4.67257C17.2539 4.73047 17.1818 4.78185 17.1054 4.82604C17.0581 4.85469 17.0095 4.88083 16.9596 4.90434C16.9463 4.91169 16.9311 4.91811 16.9158 4.92461C16.9029 4.93013 16.8897 4.9357 16.8775 4.94193C16.8626 4.94952 16.8515 4.95319 16.8412 4.9566C16.8331 4.95928 16.8255 4.9618 16.8169 4.96594L16.6732 5.02127L16.6544 5.02833C16.6644 5.02402 16.697 5.0098 16.6701 5.02023L16.6414 5.02858L16.5839 5.04528C16.5502 5.05386 16.5175 5.06419 16.4847 5.0745L16.4847 5.07451C16.4418 5.08805 16.3989 5.10157 16.354 5.11106C16.2011 5.15386 16.0461 5.18205 15.888 5.2092C15.5747 5.25615 15.2583 5.27884 14.9416 5.27706C14.6279 5.27719 14.3146 5.25311 14.0044 5.20502C13.9271 5.19527 13.8505 5.18275 13.7745 5.16743C13.746 5.16195 13.7176 5.15692 13.6891 5.15188L13.6891 5.15187C13.6416 5.14347 13.5941 5.13507 13.5466 5.12463L13.4604 5.10375L13.4638 5.09728L13.4639 5.09725C13.5185 4.99432 13.5814 4.87577 13.6257 4.80829C13.8694 4.41187 14.1623 4.04905 14.4971 3.72878V3.72774ZM16.6537 5.02858C16.6504 5.03003 16.6514 5.02963 16.6544 5.02833L16.6537 5.02858ZM16.2791 2.9363L16.278 2.93638H16.2647C16.3062 2.93035 16.3015 2.93128 16.2921 2.93315C16.286 2.93435 16.278 2.93593 16.2791 2.9363ZM5.97139 12.6611L6.00925 12.6503C6.10994 12.6243 6.20878 12.5557 6.30513 12.4888C6.34986 12.4578 6.39406 12.4271 6.43766 12.4013C6.33803 12.3023 6.2384 12.2066 6.13877 12.1175C5.82778 11.8404 5.48681 11.606 5.12352 11.4195L5.02389 11.3695L4.97208 11.3423L4.88042 11.3075L4.69709 11.2379L4.67418 11.2292L4.70407 11.239L4.68016 11.2303L4.63333 11.2118C4.51494 11.1703 4.39193 11.1465 4.26768 11.1411C4.01251 11.1346 3.76158 11.2131 3.54834 11.3662C3.31632 11.5288 3.13092 11.7594 3.01331 12.0316C2.98586 12.0955 2.96417 12.1621 2.94855 12.2306C2.93948 12.2691 2.93315 12.3084 2.92962 12.348C2.92322 12.3988 2.92592 12.4505 2.93759 12.5002C2.94166 12.5196 2.95024 12.5376 2.9625 12.5524C2.98229 12.5814 3.00657 12.6064 3.03424 12.6263C3.14022 12.7047 3.25838 12.7615 3.38295 12.7938C3.77925 12.8933 4.18758 12.923 4.59248 12.8818C4.82163 12.8634 5.05776 12.8373 5.29787 12.7949C5.37162 12.783 5.43987 12.7695 5.50885 12.7559C5.55356 12.7471 5.59857 12.7382 5.64559 12.7296L5.84485 12.684L5.94448 12.6611H5.95246H5.97139Z" fill="#000D3A"/>
</svg>
