<svg width="36" height="43" viewBox="0 0 36 43" fill="none" xmlns="http://www.w3.org/2000/svg">
<path d="M32 33C30.1615 34.9022 27.9789 36.4112 25.5767 37.4407C23.1746 38.4701 20.6 39 18 39C15.4 39 12.8254 38.4701 10.4233 37.4407C8.02113 36.4112 5.83851 34.9022 4 33" stroke="#0F214E" stroke-width="7" stroke-linecap="round" stroke-linejoin="round"/>
<path d="M13 8C12.4091 8.63408 11.7075 9.13706 10.9354 9.48022C10.1633 9.82338 9.33573 10 8.5 10C7.66427 10 6.83673 9.82338 6.06462 9.48022C5.29251 9.13706 4.59095 8.63408 4 8" stroke="#0F214E" stroke-width="7" stroke-linecap="round" stroke-linejoin="round"/>
<path d="M25 4L31.5156 15.635C31.7838 16.1139 31.6158 16.7195 31.1392 16.9919L25 20.5" stroke="#0F214E" stroke-width="7" stroke-linecap="round" stroke-linejoin="round"/>
</svg>
