<svg width="140" height="84" xmlns="http://www.w3.org/2000/svg"><defs><linearGradient x1="50%" y1="0%" x2="0%" y2="100%" id="a"><stop stop-color="#8385DE" offset="0%"/><stop stop-color="#300EB0" offset="100%"/></linearGradient><linearGradient x1="50%" y1="0%" x2="61.141%" y2="100%" id="b"><stop stop-color="#E4EAF1" offset="0%"/><stop stop-color="#98A4B4" offset="100%"/></linearGradient><linearGradient x1="7.069%" y1="50.142%" x2="107.069%" y2="49.858%" id="c"><stop stop-color="#F2F5F8" offset="0%"/><stop stop-color="#98A4B4" offset="100%"/></linearGradient></defs><g fill="none" fill-rule="evenodd"><rect fill="url(#a)" x="24" y="28" width="20" height="20" rx="2"/><path d="M90 44h16a2 2 0 0 1 2 2v16a2 2 0 0 1-2 2H90a2 2 0 0 1-2-2V46a2 2 0 0 1 2-2z" fill="url(#a)" opacity=".2"/><path d="M94 48h16a2 2 0 0 1 2 2v16a2 2 0 0 1-2 2H94a2 2 0 0 1-2-2V50a2 2 0 0 1 2-2z" fill="url(#a)" opacity=".6"/><path d="M98 52h16a2 2 0 0 1 2 2v16a2 2 0 0 1-2 2H98a2 2 0 0 1-2-2V54a2 2 0 0 1 2-2zm-8-40h16a2 2 0 0 1 2 2v16a2 2 0 0 1-2 2H90a2 2 0 0 1-2-2V14a2 2 0 0 1 2-2z" fill="url(#a)"/><path d="M78 53.5v-1.015a.3.3 0 0 1 .434-.268l3.03 1.515a.3.3 0 0 1 0 .536l-3.03 1.515a.3.3 0 0 1-.434-.268V54.5h-3.88a8.5 8.5 0 0 1-8.5-8.5 7.5 7.5 0 0 0-7.5-7.5h-4.183a2 2 0 1 1 0-1h4.182a7.5 7.5 0 0 0 7.5-7.5 8.5 8.5 0 0 1 8.5-8.5H78v-1.015a.3.3 0 0 1 .434-.268l3.03 1.515a.3.3 0 0 1 0 .536l-3.03 1.515a.3.3 0 0 1-.434-.268V22.5h-3.88a7.5 7.5 0 0 0-7.5 7.5 8.503 8.503 0 0 1-5.622 8 8.503 8.503 0 0 1 5.621 8 7.5 7.5 0 0 0 7.5 7.5H78z" fill="url(#b)" fill-rule="nonzero"/><path d="M22 1.5V.485a.3.3 0 0 1 .434-.268l3.03 1.515a.3.3 0 0 1 0 .536l-3.03 1.515A.3.3 0 0 1 22 3.515V2.5h-7v-1h7zm-22 1v-1h2v1H0zm4 0v-1h3v1H4zm5 0v-1h4v1H9z" transform="rotate(-90 55 23)" fill="url(#c)" fill-rule="nonzero"/></g></svg>