<svg width="282" height="144" xmlns="http://www.w3.org/2000/svg"><g transform="translate(1 1)" fill="none"><path d="M.317 69.407V4.218h24.157c19.844 0 32.21 13.517 32.21 32.595 0 19.077-12.366 32.594-32.21 32.594H.317zm24.062-52.055h-10.45v38.921h10.45c11.79 0 18.214-8.34 18.214-19.46 0-11.025-6.423-19.461-18.214-19.461zm83.88 32.307H75.859c1.15 5.464 5.943 9.01 12.654 9.01 5.943 0 11.887-1.725 16.2-4.505v12.559c-4.217 2.205-10.353 3.738-17.255 3.738-14.188 0-24.637-10.065-24.637-24.925 0-13.996 10.066-24.829 23.87-24.829 13.805 0 22.337 10.354 22.337 22.72 0 2.013-.384 4.698-.767 6.232zm-21.665-18.12c-5.752 0-10.065 3.74-10.736 8.245h20.61c-.191-4.889-4.314-8.244-9.874-8.244zm56.848-9.202v12.846c-2.972-1.822-7.19-3.164-10.45-3.164-3.259 0-4.697 1.63-4.697 3.451 0 1.534.959 2.301 2.78 3.452l6.902 4.026c5.752 3.451 7.861 7.957 7.861 12.942 0 8.244-6.135 14.571-17.543 14.571-4.314 0-9.107-.958-12.462-2.396V55.027c2.205 1.917 7.669 4.218 11.504 4.218 3.355 0 4.984-1.534 4.984-3.547 0-1.534-.862-2.78-3.163-4.122l-7.477-4.314c-4.985-2.876-6.903-7.574-6.903-12.27 0-8.437 6.52-14.285 17.735-14.285 3.547 0 7.861.671 10.929 1.63zm23.87-.671v47.74h-13.038v-47.74h13.038zm-14.188-13.9c0-4.315 3.26-7.766 7.67-7.766 4.505 0 7.668 3.451 7.668 7.765s-3.163 7.67-7.669 7.67c-4.41 0-7.669-3.356-7.669-7.67zm59.915 13.9h13.037v41.989c0 17.543-9.97 26.363-26.554 26.363-6.71 0-12.846-1.821-16.01-3.547V72.954c4.123 2.684 10.45 4.793 16.106 4.793 7.765 0 13.421-4.601 13.421-12.366v-3.356c-3.26 4.122-8.436 6.998-15.05 6.998-13.134 0-22.433-10.353-22.433-24.062 0-13.709 9.299-24.254 22.336-24.254 6.71 0 11.888 2.876 15.147 7.286v-6.327zm-.767 23.2c0-6.232-4.793-11.409-11.408-11.409-6.423 0-11.312 5.177-11.312 11.408 0 6.327 4.89 11.408 11.312 11.408 6.615 0 11.408-5.08 11.408-11.408zm37.962-23.2v6.04c2.589-4.123 6.615-6.999 12.558-6.999 10.258 0 16.872 7.67 16.872 17.927v30.773h-13.133v-27.13c0-5.273-3.163-8.82-8.148-8.82-4.794 0-7.861 3.164-8.149 8.245v27.705h-13.037V21.666h13.037z" stroke="#FFF"/><path d="M113.75 126.255v13.805c-2.685 1.438-7.286 2.3-10.546 2.3-15.146 0-25.212-10.928-25.212-24.924 0-14.093 10.066-24.83 25.212-24.83 3.164 0 7.861.863 10.545 2.205v13.805a18.608 18.608 0 0 0-10.545-3.26c-6.998 0-11.983 5.465-11.983 12.08s4.985 12.175 11.983 12.175c4.314 0 8.149-1.534 10.545-3.356zm6.518-8.82c0-13.996 10.833-24.829 24.829-24.829s24.829 10.833 24.829 24.83c0 13.996-10.833 24.925-24.83 24.925-13.995 0-24.828-10.929-24.828-24.925zm13.23 0c0 6.616 4.984 12.176 11.599 12.176 6.71 0 11.503-5.56 11.503-12.175 0-6.615-4.793-12.08-11.503-12.08-6.615 0-11.6 5.465-11.6 12.08zm79.183 23.871v-6.135c-3.355 4.506-8.532 7.19-14.667 7.19-13.517 0-22.624-10.929-22.624-24.925 0-13.997 9.107-24.83 22.72-24.83 6.135 0 11.216 2.589 14.57 7.095V67.61h13.038v73.695h-13.037zm0-23.87c0-6.52-4.985-11.983-11.887-11.983-6.807 0-11.983 5.464-11.983 11.983s5.176 12.079 11.983 12.079c6.902 0 11.887-5.56 11.887-12.08zm66.721 4.122H247c1.15 5.464 5.944 9.011 12.654 9.011 5.944 0 11.887-1.725 16.201-4.505v12.558c-4.218 2.205-10.353 3.739-17.255 3.739-14.188 0-24.637-10.066-24.637-24.925 0-13.997 10.065-24.83 23.87-24.83 13.804 0 22.336 10.354 22.336 22.72 0 2.014-.383 4.698-.767 6.232zm-21.665-18.119c-5.752 0-10.066 3.74-10.737 8.245h20.611c-.192-4.89-4.314-8.245-9.874-8.245zM45.285 141.053c-15.067-18.255-23.736-28.833-26.008-31.734-3.409-4.35-5.453-7.742-5.453-10.517 0-2.774 1.612-8.784 9.228-8.784 7.615 0 8.597 6.076 8.597 8.374 0 2.297-.702 6.299-10.848 11.477-10.147 5.18-16.415 7.68-16.415 18.68 0 6.732 6.39 12.142 12.864 12.142 6.473 0 11.135-3.718 17.962-10.323l11.942-14.832" stroke="#F95D0C"/></g></svg>