<svg xmlns="http://www.w3.org/2000/svg" viewBox="0 0 18.44 8.6"><title>icn_case_studies</title><path d="M18.4,1.29A2.3,2.3,0,0,0,17.11.09a2.16,2.16,0,0,0-1.8.29.5.5,0,0,0-.16.15L12.85,3.84A6.54,6.54,0,0,0,11,3.65c-.85,0-2,0-2.54.9a3.22,3.22,0,0,0-1.4-.26,3.17,3.17,0,0,0-1.42.28C5.15,3.66,3.86,3.65,3,3.65H3L5.9,1.24a1.22,1.22,0,0,1,1-.2,1.33,1.33,0,0,1,.69.65.5.5,0,0,0,.92-.4A2.3,2.3,0,0,0,7.2.09,2.2,2.2,0,0,0,5.33.42L1.24,3.77a.49.49,0,0,0-.09.12A1.67,1.67,0,0,0,0,5.62a3,3,0,0,0,5.94.18h0c0-.06,0-.11,0-.17H6c0-.07.24-.31,1.15-.31a4.19,4.19,0,0,1,1.09.15.5.5,0,0,0,.08.38,3,3,0,0,0,5.94-.2,1.7,1.7,0,0,0-.5-1.29l2.19-3.15A1.16,1.16,0,0,1,16.8,1a1.33,1.33,0,0,1,.69.65.5.5,0,1,0,.92-.4ZM3,7.6a2,2,0,0,1-2-2c0-.71.3-1,2-1S5,4.88,5,5.62A2,2,0,0,1,3,7.6Zm8.26,0a2,2,0,0,1-2-2c0-.77.21-1,1.79-1s2.17.23,2.17,1A2,2,0,0,1,11.24,7.6Z"/></svg>