<svg xmlns="http://www.w3.org/2000/svg" viewBox="0 0 7 12"><title>icon_radio</title><path d="M7,11.64a.48.48,0,0,0,0-.09.49.49,0,0,0,0-.1.48.48,0,0,0,0,0l-1-5,0,0,0-.07-.06-.1,0,0h0l-.11-.07,0,0A.5.5,0,0,0,5.5,6H4V4.91a1.5,1.5,0,1,0-1,0V6H1.5a.5.5,0,0,0-.18,0l0,0-.11.07h0l0,0-.06.1,0,.07,0,0-1,5a.48.48,0,0,0,0,0,.49.49,0,0,0,0,.1.48.48,0,0,0,0,.09l0,.09.06.08,0,0,0,0,.08.06.09,0,0,0H.55l.1,0,.08,0,.09-.06,0,0L3.5,9.21l2.65,2.65h0l.11.07,0,0a.49.49,0,0,0,.18,0h.1l0,0,.09,0,.08-.06,0,0,0,0,.06-.08ZM3.5,3a.5.5,0,1,1-.5.5A.5.5,0,0,1,3.5,3Zm.79,4-.79.79L2.71,7Zm-3,3,.49-2.47,1,1ZM5.19,7.51,5.69,10,4.21,8.5Z" style="fill:#85b697"/><path d="M.85,5a.5.5,0,0,0,.3-.64A2.5,2.5,0,1,1,6,3.5a2.48,2.48,0,0,1-.15.83.5.5,0,1,0,.94.33A3.45,3.45,0,0,0,7,3.5a3.5,3.5,0,0,0-7,0A3.45,3.45,0,0,0,.21,4.67.5.5,0,0,0,.85,5Z" style="fill:#85b697"/></svg>