<svg xmlns="http://www.w3.org/2000/svg" viewBox="0 0 10 11"><title>icon_music</title><path d="M10,1.44a.49.49,0,0,0,0-.1l0-.09-.05-.08-.07-.07-.08-.05L9.64,1,9.58,1l-6-1H3.45L3.34,0l-.07,0L3.18.13,3.12.19,3.06.27A.48.48,0,0,0,3,.36.47.47,0,0,0,3,.42s0,0,0,0,0,0,0,0V6.84A2.25,2.25,0,0,0,2,6.6,1.87,1.87,0,0,0,0,8.3,1.87,1.87,0,0,0,2,10,2,2,0,0,0,3.92,8.76.49.49,0,0,0,4,8.5V3.09l5,.83V7.84A2.25,2.25,0,0,0,8,7.6,1.87,1.87,0,0,0,6,9.3,1.87,1.87,0,0,0,8,11,2,2,0,0,0,9.92,9.76.49.49,0,0,0,10,9.5v-8A.47.47,0,0,0,10,1.44ZM2,9c-.54,0-1-.32-1-.7s.46-.7,1-.7,1,.32,1,.7S2.54,9,2,9ZM4,2.08v-1l5,.83v1ZM8,10c-.54,0-1-.32-1-.7s.46-.7,1-.7,1,.32,1,.7S8.54,10,8,10Z" style="fill:#85b697"/></svg>