<svg xmlns="http://www.w3.org/2000/svg" viewBox="0 0 11.98 11.96"><title>icon_dribbble</title><path d="M6,12a6,6,0,1,1,6-6,6,6,0,0,1-6,6ZM11,6.8a7.52,7.52,0,0,0-3.19-.22,22,22,0,0,1,1,3.64A5.12,5.12,0,0,0,11,6.8ZM8,10.69A21.21,21.21,0,0,0,6.89,6.82h0a7,7,0,0,0-4,3.19A5.11,5.11,0,0,0,8,10.69ZM2.19,9.4A8.11,8.11,0,0,1,6.35,6L6.55,6c-.13-.29-.27-.58-.41-.87a18.89,18.89,0,0,1-5.26.73c0,.05,0,.1,0,.16A5.08,5.08,0,0,0,2.19,9.4ZM1,4.94a19.1,19.1,0,0,0,4.73-.62,32.59,32.59,0,0,0-1.9-3A5.13,5.13,0,0,0,1,4.94ZM4.79,1A27.26,27.26,0,0,1,6.7,4,5.77,5.77,0,0,0,9.38,2.17,5.11,5.11,0,0,0,4.79,1ZM9.95,2.76a6.81,6.81,0,0,1-2.86,2c.12.24.23.49.34.74l.11.26a12,12,0,0,1,3.56.16A5.08,5.08,0,0,0,9.95,2.76Z" style="fill:#c32361;fill-rule:evenodd"/></svg>