<svg width="30" height="23" viewBox="0 0 30 23" fill="none" xmlns="http://www.w3.org/2000/svg">
<g opacity="0.8">
<path d="M14.283 4.50319C17.3953 4.47724 20.5346 5.57706 22.9841 7.59108C24.9483 9.19386 26.4674 11.366 27.3025 13.7991C27.4007 14.0842 27.4898 14.3729 27.5695 14.6645C27.7177 15.207 27.3462 15.7408 26.7917 15.8345C26.1549 15.9422 25.5181 16.0497 24.8814 16.1574C24.3229 16.2518 23.8021 15.8623 23.6701 15.3114C23.643 15.1981 23.6139 15.0853 23.5828 14.9729C23.0908 13.1862 22.0855 11.5238 20.697 10.2405C18.9675 8.62961 16.6393 7.63069 14.2205 7.50221C11.8034 7.36182 9.31488 8.09593 7.32397 9.57448C5.72807 10.7505 4.45446 12.3912 3.70581 14.2669C3.63773 14.4369 3.57388 14.6087 3.51434 14.7823C3.33925 15.2926 2.82218 15.621 2.29455 15.5085C2.27508 15.5043 2.2556 15.5002 2.23612 15.496C1.70658 15.383 1.35905 14.8679 1.49667 14.3442C1.56672 14.0777 1.64528 13.8131 1.73218 13.551C2.48663 11.2663 3.89616 9.18133 5.77124 7.61452C8.10779 5.64698 11.1696 4.51384 14.283 4.50319Z" fill="currentColor" />
</g>
</svg>
